<svg width="69" height="67" viewBox="0 0 69 67" fill="none" xmlns="http://www.w3.org/2000/svg">
<path fill-rule="evenodd" clip-rule="evenodd" d="M36.0272 65.7135L36.0159 65.7247L36.0002 65.7381L35.9673 65.7679L35.8987 65.8245L35.8904 65.8315L35.888 65.8333C35.8498 65.8633 35.8107 65.8919 35.7708 65.919L35.7576 65.9287L35.7426 65.9381C35.7023 65.9656 35.6609 65.9912 35.6187 66.0155L35.618 66.0159L35.6151 66.0175L35.5262 66.0659L35.4895 66.0836L35.4722 66.0928L35.4571 66.0994C35.4144 66.12 35.3709 66.1388 35.3268 66.1563L35.3209 66.1589L35.3033 66.165L35.2338 66.191L35.1861 66.2062L35.1645 66.2138L35.1509 66.2175C35.1062 66.2312 35.0609 66.2433 35.0152 66.2541L35.0037 66.2572L34.9815 66.2614L34.9261 66.2736L34.8587 66.2849L34.8389 66.2887L34.8309 66.2896C34.7829 66.2966 34.7348 66.3022 34.6863 66.3061L34.6708 66.3079L34.6517 66.3086C34.6014 66.3127 34.5508 66.3144 34.5 66.3144L32.953 65.6955C32.571 65.3318 12.1819 44.0237 12.1819 44.0237C12.1517 43.9922 12.1225 43.9598 12.0943 43.9266C7.95509 39.0615 5.03895 35.0428 3.81255 32.5119C0.193771 27.0931 -0.780006 20.1046 0.599228 14.1769C1.56317 10.0346 3.67109 6.41883 6.73394 4.10943C10.2629 1.44855 14.499 0.0133247 18.6394 0.000134647L18.6937 1.28921e-07C23.7989 -0.000605536 28.7583 2.13281 32.1601 6.77981C32.1643 6.78546 32.1684 6.79111 32.1725 6.79677L34.5 10.0393L36.8276 6.79677C36.8316 6.79111 36.8357 6.78546 36.8398 6.77981C40.23 2.14876 45.1671 0.0142668 50.2522 0.000134647L50.3063 1.28921e-07C54.4631 0.000538497 58.7213 1.43664 62.2661 4.10943C65.3289 6.41883 67.4369 10.0346 68.4008 14.1769C69.7801 20.1045 68.8063 27.093 65.1873 32.5121C63.9611 35.0427 61.045 39.0614 56.9058 43.9266C56.8903 43.9448 56.8745 43.9627 56.8585 43.9804C56.8585 43.9804 44.188 57.9414 36.0472 65.6955L36.0272 65.7135ZM34.5539 60.8993C42.3451 53.2734 52.9408 41.6209 53.5119 40.9921C57.3761 36.4484 60.1254 32.751 61.2016 30.4473C61.2523 30.3387 61.3117 30.2342 61.3791 30.1351C64.3694 25.7391 65.1559 20.0277 64.0312 15.1938C63.3173 12.126 61.8333 9.40193 59.5651 7.69167C56.8188 5.6209 53.5272 4.4871 50.3068 4.48643L50.2637 4.48649C46.5525 4.49713 42.9443 6.04332 40.4677 9.41923C40.2849 9.67394 36.3223 15.1942 36.3223 15.1942C35.9009 15.7812 35.2226 16.1292 34.5 16.1292C33.7774 16.1292 33.0991 15.7812 32.6777 15.1942L28.5342 9.42185C26.0488 6.03208 22.4227 4.48629 18.6955 4.48643L18.6525 4.48649C15.4443 4.49699 12.1693 5.62985 9.435 7.69167C7.16672 9.40193 5.68277 12.126 4.96889 15.1938C3.84404 20.0277 4.63066 25.7391 7.62083 30.1351C7.68833 30.2342 7.74768 30.3387 7.79849 30.4473C8.87281 32.7471 11.6148 36.4361 15.4688 40.9694C16.3555 41.8964 29.9641 56.1223 34.5539 60.8993Z" fill="#D2B99B"/>
<path fill-rule="evenodd" clip-rule="evenodd" d="M32.9728 65.7135L32.9841 65.7247L32.9998 65.7381L33.0326 65.7679L33.1013 65.8245L33.1096 65.8315L33.112 65.8333C33.1501 65.8633 33.1892 65.8919 33.2291 65.919L33.2424 65.9287L33.2574 65.9381C33.2977 65.9656 33.3391 65.9912 33.3813 66.0155L33.382 66.0159L33.3849 66.0175L33.4738 66.0659L33.5105 66.0836L33.5277 66.0928L33.5429 66.0994C33.5856 66.12 33.6291 66.1388 33.6732 66.1563L33.6791 66.1589L33.6967 66.165L33.7662 66.191L33.8139 66.2062L33.8355 66.2138L33.8491 66.2175C33.8938 66.2312 33.9391 66.2433 33.9847 66.2541L33.9963 66.2572L34.0185 66.2614L34.0738 66.2736L34.1413 66.2849L34.1611 66.2887L34.1691 66.2896C34.2171 66.2966 34.2652 66.3022 34.3137 66.3061L34.3292 66.3079L34.3483 66.3086C34.3986 66.3127 34.4492 66.3144 34.5 66.3144L36.047 65.6955C36.4289 65.3318 56.8181 44.0237 56.8181 44.0237C56.8482 43.9922 56.8775 43.9598 56.9057 43.9266C61.0449 39.0615 63.961 35.0428 65.1874 32.5119C68.8062 27.0931 69.78 20.1046 68.4008 14.1769C67.4368 10.0346 65.3289 6.41883 62.266 4.10943C58.7371 1.44855 54.501 0.0133247 50.3606 0.000134647L50.3063 1.28921e-07C45.201 -0.000605536 40.2417 2.13281 36.8399 6.77981C36.8357 6.78546 36.8316 6.79111 36.8275 6.79677L34.5 10.0393L32.1724 6.79677C32.1684 6.79111 32.1643 6.78546 32.1602 6.77981C28.77 2.14876 23.8329 0.0142668 18.7478 0.000134647L18.6937 1.28921e-07C14.5369 0.000538497 10.2787 1.43664 6.73389 4.10943C3.67111 6.41883 1.56313 10.0346 0.599246 14.1769C-0.780121 20.1045 0.19372 27.093 3.8127 32.5121C5.0389 35.0427 7.95504 39.0614 12.0942 43.9266C12.1097 43.9448 12.1255 43.9627 12.1415 43.9804C12.1415 43.9804 24.812 57.9414 32.9528 65.6955L32.9728 65.7135ZM34.4461 60.8993C26.6549 53.2734 16.0592 41.6209 15.4881 40.9921C11.6239 36.4484 8.87457 32.751 7.79844 30.4473C7.7477 30.3387 7.68828 30.2342 7.62085 30.1351C4.63062 25.7391 3.84406 20.0277 4.96885 15.1938C5.68272 12.126 7.16673 9.40193 9.43495 7.69167C12.1812 5.6209 15.4728 4.4871 18.6932 4.48643L18.7363 4.48649C22.4475 4.49713 26.0557 6.04332 28.5323 9.41923C28.7151 9.67394 32.6777 15.1942 32.6777 15.1942C33.0991 15.7812 33.7774 16.1292 34.5 16.1292C35.2226 16.1292 35.9009 15.7812 36.3223 15.1942L40.4658 9.42185C42.9512 6.03208 46.5773 4.48629 50.3045 4.48643L50.3475 4.48649C53.5557 4.49699 56.8307 5.62985 59.565 7.69167C61.8333 9.40193 63.3172 12.126 64.0311 15.1938C65.1559 20.0277 64.3693 25.7391 61.3792 30.1351C61.3117 30.2342 61.2523 30.3387 61.2015 30.4473C60.1272 32.7471 57.3852 36.4361 53.5312 40.9694C52.6445 41.8964 39.0359 56.1223 34.4461 60.8993Z" fill="#D2B99B"/>
<path fill-rule="evenodd" clip-rule="evenodd" d="M45.4527 50.7818L40.221 44.8238L44.5983 36.7136C44.9967 35.9754 44.9499 35.0767 44.4771 34.3838C44.0044 33.6909 43.1845 33.3197 42.3518 33.4215L35.6235 34.2445L40.8622 27.21C41.3956 26.4938 41.4533 25.5294 41.0092 24.7547C40.5651 23.9799 39.7037 23.5423 38.8162 23.6406L23.8112 25.3022L8.88134 7.40042C8.08839 6.44966 6.67268 6.32153 5.72186 7.11448C4.7711 7.90743 4.6429 9.32314 5.43592 10.2739L21.1376 29.1011C21.6195 29.6791 22.3592 29.9768 23.1072 29.894L34.183 28.6675L28.8956 35.7675C28.3594 36.4874 28.3041 37.4577 28.7549 38.2339C29.2058 39.0101 30.076 39.4428 30.967 39.3339L38.5891 38.4016L35.5319 44.066C35.0864 44.8914 35.2014 45.9068 35.8203 46.6116L42.0815 53.742C42.8984 54.6723 44.317 54.7645 45.2473 53.9476C46.1776 53.1307 46.2696 51.7122 45.4527 50.7818Z" fill="#D2B99B"/>
</svg>
